<svg width="1280" height="832" viewBox="0 0 1280 832" fill="none" xmlns="http://www.w3.org/2000/svg">
<rect width="1280" height="832" fill="white"/>
<rect x="61.5" y="53.5" width="1156" height="724" stroke="black"/>
<line x1="63.2661" y1="51.5767" x2="1218.27" y2="777.577" stroke="black" stroke-dasharray="2 2"/>
<line x1="1220.27" y1="54.4239" x2="63.2652" y2="778.424" stroke="black" stroke-dasharray="2 2"/>
<rect x="789" y="186" width="383" height="554" fill="#D9D9D9"/>
<rect x="121" y="91" width="1059" height="69" fill="#D9D9D9"/>
<path d="M562.227 131V122.273H563.523V123.636H563.636C563.818 123.17 564.112 122.809 564.517 122.551C564.922 122.29 565.409 122.159 565.977 122.159C566.553 122.159 567.032 122.29 567.415 122.551C567.801 122.809 568.102 123.17 568.318 123.636H568.409C568.633 123.186 568.968 122.828 569.415 122.562C569.862 122.294 570.398 122.159 571.023 122.159C571.803 122.159 572.441 122.403 572.938 122.892C573.434 123.377 573.682 124.133 573.682 125.159V131H572.341V125.159C572.341 124.515 572.165 124.055 571.812 123.778C571.46 123.502 571.045 123.364 570.568 123.364C569.955 123.364 569.479 123.549 569.142 123.92C568.805 124.288 568.636 124.754 568.636 125.318V131H567.273V125.023C567.273 124.527 567.112 124.127 566.79 123.824C566.468 123.517 566.053 123.364 565.545 123.364C565.197 123.364 564.871 123.456 564.568 123.642C564.269 123.828 564.027 124.085 563.841 124.415C563.659 124.741 563.568 125.117 563.568 125.545V131H562.227ZM578.702 131.205C578.149 131.205 577.647 131.1 577.196 130.892C576.745 130.68 576.387 130.375 576.122 129.977C575.857 129.576 575.724 129.091 575.724 128.523C575.724 128.023 575.823 127.617 576.02 127.307C576.217 126.992 576.48 126.746 576.81 126.568C577.139 126.39 577.503 126.258 577.901 126.17C578.302 126.08 578.705 126.008 579.111 125.955C579.641 125.886 580.071 125.835 580.401 125.801C580.734 125.763 580.976 125.701 581.128 125.614C581.283 125.527 581.361 125.375 581.361 125.159V125.114C581.361 124.553 581.207 124.117 580.901 123.807C580.598 123.496 580.137 123.341 579.52 123.341C578.88 123.341 578.378 123.481 578.014 123.761C577.651 124.042 577.395 124.341 577.247 124.659L575.974 124.205C576.202 123.674 576.505 123.261 576.884 122.966C577.266 122.667 577.683 122.458 578.134 122.341C578.588 122.22 579.035 122.159 579.474 122.159C579.755 122.159 580.077 122.193 580.44 122.261C580.808 122.326 581.162 122.46 581.503 122.665C581.848 122.869 582.134 123.178 582.361 123.591C582.588 124.004 582.702 124.557 582.702 125.25V131H581.361V129.818H581.293C581.202 130.008 581.05 130.21 580.838 130.426C580.626 130.642 580.344 130.826 579.991 130.977C579.639 131.129 579.209 131.205 578.702 131.205ZM578.906 130C579.437 130 579.884 129.896 580.247 129.688C580.615 129.479 580.891 129.21 581.077 128.881C581.266 128.551 581.361 128.205 581.361 127.841V126.614C581.304 126.682 581.179 126.744 580.986 126.801C580.796 126.854 580.577 126.902 580.327 126.943C580.08 126.981 579.84 127.015 579.605 127.045C579.374 127.072 579.187 127.095 579.043 127.114C578.694 127.159 578.368 127.233 578.065 127.335C577.766 127.434 577.524 127.583 577.338 127.784C577.156 127.981 577.065 128.25 577.065 128.591C577.065 129.057 577.238 129.409 577.582 129.648C577.931 129.883 578.372 130 578.906 130ZM585.149 134.273V122.273H586.445V123.659H586.604C586.702 123.508 586.839 123.314 587.013 123.08C587.191 122.841 587.445 122.629 587.774 122.443C588.107 122.254 588.558 122.159 589.126 122.159C589.861 122.159 590.509 122.343 591.07 122.71C591.63 123.078 592.068 123.598 592.382 124.273C592.696 124.947 592.854 125.742 592.854 126.659C592.854 127.583 592.696 128.384 592.382 129.062C592.068 129.737 591.632 130.259 591.075 130.631C590.518 130.998 589.876 131.182 589.149 131.182C588.589 131.182 588.14 131.089 587.803 130.903C587.465 130.714 587.206 130.5 587.024 130.261C586.842 130.019 586.702 129.818 586.604 129.659H586.49V134.273H585.149ZM586.467 126.636C586.467 127.295 586.564 127.877 586.757 128.381C586.95 128.881 587.232 129.273 587.604 129.557C587.975 129.837 588.429 129.977 588.967 129.977C589.528 129.977 589.996 129.83 590.371 129.534C590.75 129.235 591.034 128.833 591.223 128.33C591.416 127.822 591.513 127.258 591.513 126.636C591.513 126.023 591.418 125.47 591.229 124.977C591.043 124.481 590.761 124.089 590.382 123.801C590.007 123.509 589.536 123.364 588.967 123.364C588.422 123.364 587.964 123.502 587.592 123.778C587.221 124.051 586.941 124.434 586.751 124.926C586.562 125.415 586.467 125.985 586.467 126.636ZM599.899 125.386V126.636H594.808V125.386H599.899ZM605.804 131.182C604.986 131.182 604.281 130.989 603.69 130.602C603.099 130.216 602.645 129.684 602.327 129.006C602.009 128.328 601.849 127.553 601.849 126.682C601.849 125.795 602.012 125.013 602.338 124.335C602.668 123.653 603.126 123.121 603.713 122.739C604.304 122.352 604.993 122.159 605.781 122.159C606.395 122.159 606.948 122.273 607.44 122.5C607.933 122.727 608.336 123.045 608.651 123.455C608.965 123.864 609.16 124.341 609.236 124.886H607.895C607.793 124.489 607.565 124.136 607.213 123.83C606.865 123.519 606.395 123.364 605.804 123.364C605.281 123.364 604.823 123.5 604.429 123.773C604.039 124.042 603.734 124.422 603.514 124.915C603.298 125.403 603.19 125.977 603.19 126.636C603.19 127.311 603.296 127.898 603.509 128.398C603.724 128.898 604.027 129.286 604.418 129.562C604.812 129.839 605.274 129.977 605.804 129.977C606.152 129.977 606.469 129.917 606.753 129.795C607.037 129.674 607.277 129.5 607.474 129.273C607.671 129.045 607.812 128.773 607.895 128.455H609.236C609.16 128.97 608.973 129.434 608.673 129.847C608.378 130.256 607.986 130.581 607.497 130.824C607.012 131.062 606.448 131.182 605.804 131.182ZM614.741 131.182C613.954 131.182 613.262 130.994 612.668 130.619C612.077 130.244 611.615 129.72 611.281 129.045C610.952 128.371 610.787 127.583 610.787 126.682C610.787 125.773 610.952 124.979 611.281 124.301C611.615 123.623 612.077 123.097 612.668 122.722C613.262 122.347 613.954 122.159 614.741 122.159C615.529 122.159 616.219 122.347 616.81 122.722C617.404 123.097 617.866 123.623 618.196 124.301C618.529 124.979 618.696 125.773 618.696 126.682C618.696 127.583 618.529 128.371 618.196 129.045C617.866 129.72 617.404 130.244 616.81 130.619C616.219 130.994 615.529 131.182 614.741 131.182ZM614.741 129.977C615.34 129.977 615.832 129.824 616.219 129.517C616.605 129.21 616.891 128.807 617.077 128.307C617.262 127.807 617.355 127.265 617.355 126.682C617.355 126.098 617.262 125.555 617.077 125.051C616.891 124.547 616.605 124.14 616.219 123.83C615.832 123.519 615.34 123.364 614.741 123.364C614.143 123.364 613.651 123.519 613.264 123.83C612.878 124.14 612.592 124.547 612.406 125.051C612.221 125.555 612.128 126.098 612.128 126.682C612.128 127.265 612.221 127.807 612.406 128.307C612.592 128.807 612.878 129.21 613.264 129.517C613.651 129.824 614.143 129.977 614.741 129.977ZM622.084 125.75V131H620.743V122.273H622.038V123.636H622.152C622.357 123.193 622.667 122.837 623.084 122.568C623.5 122.295 624.038 122.159 624.697 122.159C625.288 122.159 625.805 122.28 626.249 122.523C626.692 122.761 627.036 123.125 627.283 123.614C627.529 124.098 627.652 124.712 627.652 125.455V131H626.311V125.545C626.311 124.86 626.133 124.326 625.777 123.943C625.421 123.557 624.932 123.364 624.311 123.364C623.883 123.364 623.5 123.456 623.163 123.642C622.83 123.828 622.567 124.098 622.374 124.455C622.18 124.811 622.084 125.242 622.084 125.75ZM633.898 122.273V123.409H629.375V122.273H633.898ZM630.693 120.182H632.034V128.5C632.034 128.879 632.089 129.163 632.199 129.352C632.313 129.538 632.456 129.663 632.631 129.727C632.809 129.788 632.996 129.818 633.193 129.818C633.341 129.818 633.462 129.811 633.557 129.795C633.652 129.777 633.727 129.761 633.784 129.75L634.057 130.955C633.966 130.989 633.839 131.023 633.676 131.057C633.513 131.095 633.307 131.114 633.057 131.114C632.678 131.114 632.307 131.032 631.943 130.869C631.583 130.706 631.284 130.458 631.045 130.125C630.811 129.792 630.693 129.371 630.693 128.864V120.182ZM635.915 131V122.273H637.21V123.591H637.301C637.46 123.159 637.748 122.809 638.165 122.54C638.581 122.271 639.051 122.136 639.574 122.136C639.672 122.136 639.795 122.138 639.943 122.142C640.091 122.146 640.203 122.152 640.278 122.159V123.523C640.233 123.511 640.129 123.494 639.966 123.472C639.807 123.445 639.638 123.432 639.46 123.432C639.036 123.432 638.657 123.521 638.324 123.699C637.994 123.873 637.733 124.116 637.54 124.426C637.35 124.733 637.256 125.083 637.256 125.477V131H635.915ZM645.148 131.182C644.36 131.182 643.669 130.994 643.074 130.619C642.483 130.244 642.021 129.72 641.688 129.045C641.358 128.371 641.193 127.583 641.193 126.682C641.193 125.773 641.358 124.979 641.688 124.301C642.021 123.623 642.483 123.097 643.074 122.722C643.669 122.347 644.36 122.159 645.148 122.159C645.936 122.159 646.625 122.347 647.216 122.722C647.811 123.097 648.273 123.623 648.602 124.301C648.936 124.979 649.102 125.773 649.102 126.682C649.102 127.583 648.936 128.371 648.602 129.045C648.273 129.72 647.811 130.244 647.216 130.619C646.625 130.994 645.936 131.182 645.148 131.182ZM645.148 129.977C645.746 129.977 646.239 129.824 646.625 129.517C647.011 129.21 647.297 128.807 647.483 128.307C647.669 127.807 647.761 127.265 647.761 126.682C647.761 126.098 647.669 125.555 647.483 125.051C647.297 124.547 647.011 124.14 646.625 123.83C646.239 123.519 645.746 123.364 645.148 123.364C644.549 123.364 644.057 123.519 643.67 123.83C643.284 124.14 642.998 124.547 642.812 125.051C642.627 125.555 642.534 126.098 642.534 126.682C642.534 127.265 642.627 127.807 642.812 128.307C642.998 128.807 643.284 129.21 643.67 129.517C644.057 129.824 644.549 129.977 645.148 129.977ZM652.49 119.364V131H651.149V119.364H652.49ZM661.128 124.227L659.923 124.568C659.848 124.367 659.736 124.172 659.588 123.983C659.444 123.79 659.247 123.631 658.997 123.506C658.747 123.381 658.427 123.318 658.037 123.318C657.503 123.318 657.058 123.441 656.702 123.688C656.349 123.93 656.173 124.239 656.173 124.614C656.173 124.947 656.295 125.21 656.537 125.403C656.779 125.597 657.158 125.758 657.673 125.886L658.969 126.205C659.749 126.394 660.33 126.684 660.713 127.074C661.096 127.46 661.287 127.958 661.287 128.568C661.287 129.068 661.143 129.515 660.855 129.909C660.571 130.303 660.173 130.614 659.662 130.841C659.151 131.068 658.556 131.182 657.878 131.182C656.988 131.182 656.251 130.989 655.668 130.602C655.084 130.216 654.715 129.652 654.56 128.909L655.832 128.591C655.954 129.061 656.183 129.413 656.52 129.648C656.861 129.883 657.306 130 657.855 130C658.48 130 658.976 129.867 659.344 129.602C659.715 129.333 659.901 129.011 659.901 128.636C659.901 128.333 659.795 128.08 659.582 127.875C659.37 127.667 659.045 127.511 658.605 127.409L657.151 127.068C656.351 126.879 655.764 126.585 655.389 126.188C655.018 125.786 654.832 125.284 654.832 124.682C654.832 124.189 654.971 123.754 655.247 123.375C655.527 122.996 655.908 122.699 656.389 122.483C656.874 122.267 657.423 122.159 658.037 122.159C658.901 122.159 659.579 122.348 660.071 122.727C660.567 123.106 660.92 123.606 661.128 124.227ZM668.305 125.386V126.636H663.214V125.386H668.305ZM674.21 131.182C673.392 131.182 672.688 130.989 672.097 130.602C671.506 130.216 671.051 129.684 670.733 129.006C670.415 128.328 670.256 127.553 670.256 126.682C670.256 125.795 670.419 125.013 670.744 124.335C671.074 123.653 671.532 123.121 672.119 122.739C672.71 122.352 673.4 122.159 674.188 122.159C674.801 122.159 675.354 122.273 675.847 122.5C676.339 122.727 676.742 123.045 677.057 123.455C677.371 123.864 677.566 124.341 677.642 124.886H676.301C676.199 124.489 675.972 124.136 675.619 123.83C675.271 123.519 674.801 123.364 674.21 123.364C673.688 123.364 673.229 123.5 672.835 123.773C672.445 124.042 672.14 124.422 671.92 124.915C671.705 125.403 671.597 125.977 671.597 126.636C671.597 127.311 671.703 127.898 671.915 128.398C672.131 128.898 672.434 129.286 672.824 129.562C673.218 129.839 673.68 129.977 674.21 129.977C674.559 129.977 674.875 129.917 675.159 129.795C675.443 129.674 675.684 129.5 675.881 129.273C676.078 129.045 676.218 128.773 676.301 128.455H677.642C677.566 128.97 677.379 129.434 677.08 129.847C676.784 130.256 676.392 130.581 675.903 130.824C675.419 131.062 674.854 131.182 674.21 131.182ZM683.148 131.182C682.36 131.182 681.669 130.994 681.074 130.619C680.483 130.244 680.021 129.72 679.688 129.045C679.358 128.371 679.193 127.583 679.193 126.682C679.193 125.773 679.358 124.979 679.688 124.301C680.021 123.623 680.483 123.097 681.074 122.722C681.669 122.347 682.36 122.159 683.148 122.159C683.936 122.159 684.625 122.347 685.216 122.722C685.811 123.097 686.273 123.623 686.602 124.301C686.936 124.979 687.102 125.773 687.102 126.682C687.102 127.583 686.936 128.371 686.602 129.045C686.273 129.72 685.811 130.244 685.216 130.619C684.625 130.994 683.936 131.182 683.148 131.182ZM683.148 129.977C683.746 129.977 684.239 129.824 684.625 129.517C685.011 129.21 685.297 128.807 685.483 128.307C685.669 127.807 685.761 127.265 685.761 126.682C685.761 126.098 685.669 125.555 685.483 125.051C685.297 124.547 685.011 124.14 684.625 123.83C684.239 123.519 683.746 123.364 683.148 123.364C682.549 123.364 682.057 123.519 681.67 123.83C681.284 124.14 680.998 124.547 680.812 125.051C680.627 125.555 680.534 126.098 680.534 126.682C680.534 127.265 680.627 127.807 680.812 128.307C680.998 128.807 681.284 129.21 681.67 129.517C682.057 129.824 682.549 129.977 683.148 129.977ZM690.49 125.75V131H689.149V122.273H690.445V123.636H690.558C690.763 123.193 691.073 122.837 691.49 122.568C691.907 122.295 692.445 122.159 693.104 122.159C693.695 122.159 694.212 122.28 694.655 122.523C695.098 122.761 695.443 123.125 695.689 123.614C695.935 124.098 696.058 124.712 696.058 125.455V131H694.717V125.545C694.717 124.86 694.539 124.326 694.183 123.943C693.827 123.557 693.339 123.364 692.717 123.364C692.289 123.364 691.907 123.456 691.57 123.642C691.236 123.828 690.973 124.098 690.78 124.455C690.587 124.811 690.49 125.242 690.49 125.75ZM702.304 122.273V123.409H697.781V122.273H702.304ZM699.099 120.182H700.44V128.5C700.44 128.879 700.495 129.163 700.605 129.352C700.719 129.538 700.863 129.663 701.037 129.727C701.215 129.788 701.402 129.818 701.599 129.818C701.747 129.818 701.868 129.811 701.963 129.795C702.058 129.777 702.134 129.761 702.19 129.75L702.463 130.955C702.372 130.989 702.245 131.023 702.082 131.057C701.92 131.095 701.713 131.114 701.463 131.114C701.084 131.114 700.713 131.032 700.349 130.869C699.99 130.706 699.69 130.458 699.452 130.125C699.217 129.792 699.099 129.371 699.099 128.864V120.182ZM706.889 131.205C706.336 131.205 705.834 131.1 705.384 130.892C704.933 130.68 704.575 130.375 704.31 129.977C704.045 129.576 703.912 129.091 703.912 128.523C703.912 128.023 704.01 127.617 704.207 127.307C704.404 126.992 704.668 126.746 704.997 126.568C705.327 126.39 705.69 126.258 706.088 126.17C706.49 126.08 706.893 126.008 707.298 125.955C707.829 125.886 708.259 125.835 708.588 125.801C708.921 125.763 709.164 125.701 709.315 125.614C709.471 125.527 709.548 125.375 709.548 125.159V125.114C709.548 124.553 709.395 124.117 709.088 123.807C708.785 123.496 708.325 123.341 707.707 123.341C707.067 123.341 706.565 123.481 706.202 123.761C705.838 124.042 705.582 124.341 705.435 124.659L704.162 124.205C704.389 123.674 704.692 123.261 705.071 122.966C705.454 122.667 705.87 122.458 706.321 122.341C706.776 122.22 707.223 122.159 707.662 122.159C707.942 122.159 708.264 122.193 708.628 122.261C708.995 122.326 709.349 122.46 709.69 122.665C710.035 122.869 710.321 123.178 710.548 123.591C710.776 124.004 710.889 124.557 710.889 125.25V131H709.548V129.818H709.48C709.389 130.008 709.238 130.21 709.026 130.426C708.813 130.642 708.531 130.826 708.179 130.977C707.827 131.129 707.397 131.205 706.889 131.205ZM707.094 130C707.624 130 708.071 129.896 708.435 129.688C708.802 129.479 709.079 129.21 709.264 128.881C709.454 128.551 709.548 128.205 709.548 127.841V126.614C709.491 126.682 709.366 126.744 709.173 126.801C708.984 126.854 708.764 126.902 708.514 126.943C708.268 126.981 708.027 127.015 707.793 127.045C707.562 127.072 707.374 127.095 707.23 127.114C706.882 127.159 706.556 127.233 706.253 127.335C705.954 127.434 705.711 127.583 705.526 127.784C705.344 127.981 705.253 128.25 705.253 128.591C705.253 129.057 705.425 129.409 705.77 129.648C706.118 129.883 706.56 130 707.094 130ZM713.337 131V122.273H714.678V131H713.337ZM714.018 120.818C713.757 120.818 713.532 120.729 713.342 120.551C713.157 120.373 713.064 120.159 713.064 119.909C713.064 119.659 713.157 119.445 713.342 119.267C713.532 119.089 713.757 119 714.018 119C714.28 119 714.503 119.089 714.689 119.267C714.878 119.445 714.973 119.659 714.973 119.909C714.973 120.159 714.878 120.373 714.689 120.551C714.503 120.729 714.28 120.818 714.018 120.818ZM718.474 125.75V131H717.134V122.273H718.429V123.636H718.543C718.747 123.193 719.058 122.837 719.474 122.568C719.891 122.295 720.429 122.159 721.088 122.159C721.679 122.159 722.196 122.28 722.639 122.523C723.082 122.761 723.427 123.125 723.673 123.614C723.92 124.098 724.043 124.712 724.043 125.455V131H722.702V125.545C722.702 124.86 722.524 124.326 722.168 123.943C721.812 123.557 721.323 123.364 720.702 123.364C720.274 123.364 719.891 123.456 719.554 123.642C719.221 123.828 718.957 124.098 718.764 124.455C718.571 124.811 718.474 125.242 718.474 125.75ZM730.152 131.182C729.311 131.182 728.586 130.996 727.976 130.625C727.37 130.25 726.902 129.727 726.572 129.057C726.247 128.383 726.084 127.598 726.084 126.705C726.084 125.811 726.247 125.023 726.572 124.341C726.902 123.655 727.36 123.121 727.947 122.739C728.538 122.352 729.228 122.159 730.016 122.159C730.47 122.159 730.919 122.235 731.362 122.386C731.805 122.538 732.209 122.784 732.572 123.125C732.936 123.462 733.226 123.909 733.442 124.466C733.658 125.023 733.766 125.708 733.766 126.523V127.091H727.038V125.932H732.402C732.402 125.439 732.304 125 732.107 124.614C731.913 124.227 731.637 123.922 731.277 123.699C730.921 123.475 730.5 123.364 730.016 123.364C729.482 123.364 729.019 123.496 728.629 123.761C728.243 124.023 727.946 124.364 727.737 124.784C727.529 125.205 727.425 125.655 727.425 126.136V126.909C727.425 127.568 727.538 128.127 727.766 128.585C727.997 129.04 728.317 129.386 728.726 129.625C729.135 129.86 729.61 129.977 730.152 129.977C730.504 129.977 730.822 129.928 731.107 129.83C731.394 129.727 731.643 129.576 731.851 129.375C732.059 129.17 732.22 128.917 732.334 128.614L733.629 128.977C733.493 129.417 733.264 129.803 732.942 130.136C732.62 130.466 732.222 130.723 731.749 130.909C731.275 131.091 730.743 131.182 730.152 131.182ZM735.805 131V122.273H737.101V123.591H737.192C737.351 123.159 737.639 122.809 738.055 122.54C738.472 122.271 738.942 122.136 739.464 122.136C739.563 122.136 739.686 122.138 739.834 122.142C739.982 122.146 740.093 122.152 740.169 122.159V123.523C740.124 123.511 740.019 123.494 739.857 123.472C739.697 123.445 739.529 123.432 739.351 123.432C738.927 123.432 738.548 123.521 738.214 123.699C737.885 123.873 737.624 124.116 737.43 124.426C737.241 124.733 737.146 125.083 737.146 125.477V131H735.805Z" fill="black"/>
<path d="M875.227 459V450.273H876.523V451.636H876.636C876.818 451.17 877.112 450.809 877.517 450.551C877.922 450.29 878.409 450.159 878.977 450.159C879.553 450.159 880.032 450.29 880.415 450.551C880.801 450.809 881.102 451.17 881.318 451.636H881.409C881.633 451.186 881.968 450.828 882.415 450.562C882.862 450.294 883.398 450.159 884.023 450.159C884.803 450.159 885.441 450.403 885.938 450.892C886.434 451.377 886.682 452.133 886.682 453.159V459H885.341V453.159C885.341 452.515 885.165 452.055 884.812 451.778C884.46 451.502 884.045 451.364 883.568 451.364C882.955 451.364 882.479 451.549 882.142 451.92C881.805 452.288 881.636 452.754 881.636 453.318V459H880.273V453.023C880.273 452.527 880.112 452.127 879.79 451.824C879.468 451.517 879.053 451.364 878.545 451.364C878.197 451.364 877.871 451.456 877.568 451.642C877.269 451.828 877.027 452.085 876.841 452.415C876.659 452.741 876.568 453.117 876.568 453.545V459H875.227ZM891.702 459.205C891.149 459.205 890.647 459.1 890.196 458.892C889.745 458.68 889.387 458.375 889.122 457.977C888.857 457.576 888.724 457.091 888.724 456.523C888.724 456.023 888.823 455.617 889.02 455.307C889.217 454.992 889.48 454.746 889.81 454.568C890.139 454.39 890.503 454.258 890.901 454.17C891.302 454.08 891.705 454.008 892.111 453.955C892.641 453.886 893.071 453.835 893.401 453.801C893.734 453.763 893.976 453.701 894.128 453.614C894.283 453.527 894.361 453.375 894.361 453.159V453.114C894.361 452.553 894.207 452.117 893.901 451.807C893.598 451.496 893.137 451.341 892.52 451.341C891.88 451.341 891.378 451.481 891.014 451.761C890.651 452.042 890.395 452.341 890.247 452.659L888.974 452.205C889.202 451.674 889.505 451.261 889.884 450.966C890.266 450.667 890.683 450.458 891.134 450.341C891.588 450.22 892.035 450.159 892.474 450.159C892.755 450.159 893.077 450.193 893.44 450.261C893.808 450.326 894.162 450.46 894.503 450.665C894.848 450.869 895.134 451.178 895.361 451.591C895.588 452.004 895.702 452.557 895.702 453.25V459H894.361V457.818H894.293C894.202 458.008 894.05 458.21 893.838 458.426C893.626 458.642 893.344 458.826 892.991 458.977C892.639 459.129 892.209 459.205 891.702 459.205ZM891.906 458C892.437 458 892.884 457.896 893.247 457.688C893.615 457.479 893.891 457.21 894.077 456.881C894.266 456.551 894.361 456.205 894.361 455.841V454.614C894.304 454.682 894.179 454.744 893.986 454.801C893.796 454.854 893.577 454.902 893.327 454.943C893.08 454.981 892.84 455.015 892.605 455.045C892.374 455.072 892.187 455.095 892.043 455.114C891.694 455.159 891.368 455.233 891.065 455.335C890.766 455.434 890.524 455.583 890.338 455.784C890.156 455.981 890.065 456.25 890.065 456.591C890.065 457.057 890.238 457.409 890.582 457.648C890.931 457.883 891.372 458 891.906 458ZM898.149 462.273V450.273H899.445V451.659H899.604C899.702 451.508 899.839 451.314 900.013 451.08C900.191 450.841 900.445 450.629 900.774 450.443C901.107 450.254 901.558 450.159 902.126 450.159C902.861 450.159 903.509 450.343 904.07 450.71C904.63 451.078 905.068 451.598 905.382 452.273C905.696 452.947 905.854 453.742 905.854 454.659C905.854 455.583 905.696 456.384 905.382 457.062C905.068 457.737 904.632 458.259 904.075 458.631C903.518 458.998 902.876 459.182 902.149 459.182C901.589 459.182 901.14 459.089 900.803 458.903C900.465 458.714 900.206 458.5 900.024 458.261C899.842 458.019 899.702 457.818 899.604 457.659H899.49V462.273H898.149ZM899.467 454.636C899.467 455.295 899.564 455.877 899.757 456.381C899.95 456.881 900.232 457.273 900.604 457.557C900.975 457.837 901.429 457.977 901.967 457.977C902.528 457.977 902.996 457.83 903.371 457.534C903.75 457.235 904.034 456.833 904.223 456.33C904.416 455.822 904.513 455.258 904.513 454.636C904.513 454.023 904.418 453.47 904.229 452.977C904.043 452.481 903.761 452.089 903.382 451.801C903.007 451.509 902.536 451.364 901.967 451.364C901.422 451.364 900.964 451.502 900.592 451.778C900.221 452.051 899.941 452.434 899.751 452.926C899.562 453.415 899.467 453.985 899.467 454.636ZM912.899 453.386V454.636H907.808V453.386H912.899ZM915.259 459V450.273H916.599V459H915.259ZM915.94 448.818C915.679 448.818 915.454 448.729 915.264 448.551C915.079 448.373 914.986 448.159 914.986 447.909C914.986 447.659 915.079 447.445 915.264 447.267C915.454 447.089 915.679 447 915.94 447C916.202 447 916.425 447.089 916.611 447.267C916.8 447.445 916.895 447.659 916.895 447.909C916.895 448.159 916.8 448.373 916.611 448.551C916.425 448.729 916.202 448.818 915.94 448.818ZM920.396 453.75V459H919.055V450.273H920.351V451.636H920.464C920.669 451.193 920.98 450.837 921.396 450.568C921.813 450.295 922.351 450.159 923.01 450.159C923.601 450.159 924.118 450.28 924.561 450.523C925.004 450.761 925.349 451.125 925.595 451.614C925.841 452.098 925.964 452.712 925.964 453.455V459H924.624V453.545C924.624 452.86 924.446 452.326 924.089 451.943C923.733 451.557 923.245 451.364 922.624 451.364C922.196 451.364 921.813 451.456 921.476 451.642C921.143 451.828 920.879 452.098 920.686 452.455C920.493 452.811 920.396 453.242 920.396 453.75ZM932.301 450.273V451.409H927.597V450.273H932.301ZM929.006 459V449.068C929.006 448.568 929.123 448.152 929.358 447.818C929.593 447.485 929.898 447.235 930.273 447.068C930.648 446.902 931.044 446.818 931.46 446.818C931.79 446.818 932.059 446.845 932.267 446.898C932.475 446.951 932.631 447 932.733 447.045L932.347 448.205C932.278 448.182 932.184 448.153 932.062 448.119C931.945 448.085 931.79 448.068 931.597 448.068C931.153 448.068 930.833 448.18 930.636 448.403C930.443 448.627 930.347 448.955 930.347 449.386V459H929.006ZM937.366 459.182C936.579 459.182 935.887 458.994 935.293 458.619C934.702 458.244 934.24 457.72 933.906 457.045C933.577 456.371 933.412 455.583 933.412 454.682C933.412 453.773 933.577 452.979 933.906 452.301C934.24 451.623 934.702 451.097 935.293 450.722C935.887 450.347 936.579 450.159 937.366 450.159C938.154 450.159 938.844 450.347 939.435 450.722C940.029 451.097 940.491 451.623 940.821 452.301C941.154 452.979 941.321 453.773 941.321 454.682C941.321 455.583 941.154 456.371 940.821 457.045C940.491 457.72 940.029 458.244 939.435 458.619C938.844 458.994 938.154 459.182 937.366 459.182ZM937.366 457.977C937.965 457.977 938.457 457.824 938.844 457.517C939.23 457.21 939.516 456.807 939.702 456.307C939.887 455.807 939.98 455.265 939.98 454.682C939.98 454.098 939.887 453.555 939.702 453.051C939.516 452.547 939.23 452.14 938.844 451.83C938.457 451.519 937.965 451.364 937.366 451.364C936.768 451.364 936.276 451.519 935.889 451.83C935.503 452.14 935.217 452.547 935.031 453.051C934.846 453.555 934.753 454.098 934.753 454.682C934.753 455.265 934.846 455.807 935.031 456.307C935.217 456.807 935.503 457.21 935.889 457.517C936.276 457.824 936.768 457.977 937.366 457.977ZM948.368 453.386V454.636H943.277V453.386H948.368ZM952.705 459L950.045 450.273H951.455L953.341 456.955H953.432L955.295 450.273H956.727L958.568 456.932H958.659L960.545 450.273H961.955L959.295 459H957.977L956.068 452.295H955.932L954.023 459H952.705ZM963.727 459V450.273H965.068V459H963.727ZM964.409 448.818C964.148 448.818 963.922 448.729 963.733 448.551C963.547 448.373 963.455 448.159 963.455 447.909C963.455 447.659 963.547 447.445 963.733 447.267C963.922 447.089 964.148 447 964.409 447C964.67 447 964.894 447.089 965.08 447.267C965.269 447.445 965.364 447.659 965.364 447.909C965.364 448.159 965.269 448.373 965.08 448.551C964.894 448.729 964.67 448.818 964.409 448.818ZM968.865 453.75V459H967.524V450.273H968.82V451.636H968.933C969.138 451.193 969.448 450.837 969.865 450.568C970.282 450.295 970.82 450.159 971.479 450.159C972.07 450.159 972.587 450.28 973.03 450.523C973.473 450.761 973.818 451.125 974.064 451.614C974.31 452.098 974.433 452.712 974.433 453.455V459H973.092V453.545C973.092 452.86 972.914 452.326 972.558 451.943C972.202 451.557 971.714 451.364 971.092 451.364C970.664 451.364 970.282 451.456 969.945 451.642C969.611 451.828 969.348 452.098 969.155 452.455C968.962 452.811 968.865 453.242 968.865 453.75ZM980.179 459.182C979.452 459.182 978.81 458.998 978.253 458.631C977.696 458.259 977.26 457.737 976.946 457.062C976.632 456.384 976.474 455.583 976.474 454.659C976.474 453.742 976.632 452.947 976.946 452.273C977.26 451.598 977.698 451.078 978.259 450.71C978.819 450.343 979.467 450.159 980.202 450.159C980.77 450.159 981.219 450.254 981.548 450.443C981.882 450.629 982.135 450.841 982.31 451.08C982.488 451.314 982.626 451.508 982.724 451.659H982.838V447.364H984.179V459H982.884V457.659H982.724C982.626 457.818 982.486 458.019 982.304 458.261C982.122 458.5 981.863 458.714 981.526 458.903C981.188 459.089 980.74 459.182 980.179 459.182ZM980.361 457.977C980.899 457.977 981.353 457.837 981.724 457.557C982.096 457.273 982.378 456.881 982.571 456.381C982.764 455.877 982.861 455.295 982.861 454.636C982.861 453.985 982.766 453.415 982.577 452.926C982.387 452.434 982.107 452.051 981.736 451.778C981.365 451.502 980.906 451.364 980.361 451.364C979.793 451.364 979.319 451.509 978.94 451.801C978.565 452.089 978.283 452.481 978.094 452.977C977.908 453.47 977.815 454.023 977.815 454.636C977.815 455.258 977.91 455.822 978.099 456.33C978.293 456.833 978.577 457.235 978.952 457.534C979.33 457.83 979.8 457.977 980.361 457.977ZM990.366 459.182C989.579 459.182 988.887 458.994 988.293 458.619C987.702 458.244 987.24 457.72 986.906 457.045C986.577 456.371 986.412 455.583 986.412 454.682C986.412 453.773 986.577 452.979 986.906 452.301C987.24 451.623 987.702 451.097 988.293 450.722C988.887 450.347 989.579 450.159 990.366 450.159C991.154 450.159 991.844 450.347 992.435 450.722C993.029 451.097 993.491 451.623 993.821 452.301C994.154 452.979 994.321 453.773 994.321 454.682C994.321 455.583 994.154 456.371 993.821 457.045C993.491 457.72 993.029 458.244 992.435 458.619C991.844 458.994 991.154 459.182 990.366 459.182ZM990.366 457.977C990.965 457.977 991.457 457.824 991.844 457.517C992.23 457.21 992.516 456.807 992.702 456.307C992.887 455.807 992.98 455.265 992.98 454.682C992.98 454.098 992.887 453.555 992.702 453.051C992.516 452.547 992.23 452.14 991.844 451.83C991.457 451.519 990.965 451.364 990.366 451.364C989.768 451.364 989.276 451.519 988.889 451.83C988.503 452.14 988.217 452.547 988.031 453.051C987.846 453.555 987.753 454.098 987.753 454.682C987.753 455.265 987.846 455.807 988.031 456.307C988.217 456.807 988.503 457.21 988.889 457.517C989.276 457.824 989.768 457.977 990.366 457.977ZM998.048 459L995.389 450.273H996.798L998.685 456.955H998.776L1000.64 450.273H1002.07L1003.91 456.932H1004L1005.89 450.273H1007.3L1004.64 459H1003.32L1001.41 452.295H1001.28L999.366 459H998.048ZM1014.07 453.386V454.636H1008.98V453.386H1014.07ZM1019.98 459.182C1019.16 459.182 1018.45 458.989 1017.86 458.602C1017.27 458.216 1016.82 457.684 1016.5 457.006C1016.18 456.328 1016.02 455.553 1016.02 454.682C1016.02 453.795 1016.18 453.013 1016.51 452.335C1016.84 451.653 1017.3 451.121 1017.88 450.739C1018.48 450.352 1019.17 450.159 1019.95 450.159C1020.57 450.159 1021.12 450.273 1021.61 450.5C1022.1 450.727 1022.51 451.045 1022.82 451.455C1023.14 451.864 1023.33 452.341 1023.41 452.886H1022.07C1021.96 452.489 1021.74 452.136 1021.38 451.83C1021.04 451.519 1020.57 451.364 1019.98 451.364C1019.45 451.364 1018.99 451.5 1018.6 451.773C1018.21 452.042 1017.91 452.422 1017.69 452.915C1017.47 453.403 1017.36 453.977 1017.36 454.636C1017.36 455.311 1017.47 455.898 1017.68 456.398C1017.9 456.898 1018.2 457.286 1018.59 457.562C1018.98 457.839 1019.45 457.977 1019.98 457.977C1020.32 457.977 1020.64 457.917 1020.92 457.795C1021.21 457.674 1021.45 457.5 1021.65 457.273C1021.84 457.045 1021.98 456.773 1022.07 456.455H1023.41C1023.33 456.97 1023.14 457.434 1022.85 457.847C1022.55 458.256 1022.16 458.581 1021.67 458.824C1021.18 459.062 1020.62 459.182 1019.98 459.182ZM1028.91 459.182C1028.13 459.182 1027.43 458.994 1026.84 458.619C1026.25 458.244 1025.79 457.72 1025.45 457.045C1025.12 456.371 1024.96 455.583 1024.96 454.682C1024.96 453.773 1025.12 452.979 1025.45 452.301C1025.79 451.623 1026.25 451.097 1026.84 450.722C1027.43 450.347 1028.13 450.159 1028.91 450.159C1029.7 450.159 1030.39 450.347 1030.98 450.722C1031.58 451.097 1032.04 451.623 1032.37 452.301C1032.7 452.979 1032.87 453.773 1032.87 454.682C1032.87 455.583 1032.7 456.371 1032.37 457.045C1032.04 457.72 1031.58 458.244 1030.98 458.619C1030.39 458.994 1029.7 459.182 1028.91 459.182ZM1028.91 457.977C1029.51 457.977 1030 457.824 1030.39 457.517C1030.78 457.21 1031.06 456.807 1031.25 456.307C1031.43 455.807 1031.53 455.265 1031.53 454.682C1031.53 454.098 1031.43 453.555 1031.25 453.051C1031.06 452.547 1030.78 452.14 1030.39 451.83C1030 451.519 1029.51 451.364 1028.91 451.364C1028.31 451.364 1027.82 451.519 1027.44 451.83C1027.05 452.14 1026.76 452.547 1026.58 453.051C1026.39 453.555 1026.3 454.098 1026.3 454.682C1026.3 455.265 1026.39 455.807 1026.58 456.307C1026.76 456.807 1027.05 457.21 1027.44 457.517C1027.82 457.824 1028.31 457.977 1028.91 457.977ZM1036.26 453.75V459H1034.91V450.273H1036.21V451.636H1036.32C1036.53 451.193 1036.84 450.837 1037.26 450.568C1037.67 450.295 1038.21 450.159 1038.87 450.159C1039.46 450.159 1039.98 450.28 1040.42 450.523C1040.86 450.761 1041.21 451.125 1041.45 451.614C1041.7 452.098 1041.82 452.712 1041.82 453.455V459H1040.48V453.545C1040.48 452.86 1040.3 452.326 1039.95 451.943C1039.59 451.557 1039.1 451.364 1038.48 451.364C1038.05 451.364 1037.67 451.456 1037.34 451.642C1037 451.828 1036.74 452.098 1036.55 452.455C1036.35 452.811 1036.26 453.242 1036.26 453.75ZM1048.07 450.273V451.409H1043.55V450.273H1048.07ZM1044.87 448.182H1046.21V456.5C1046.21 456.879 1046.26 457.163 1046.37 457.352C1046.48 457.538 1046.63 457.663 1046.8 457.727C1046.98 457.788 1047.17 457.818 1047.37 457.818C1047.51 457.818 1047.63 457.811 1047.73 457.795C1047.82 457.777 1047.9 457.761 1047.96 457.75L1048.23 458.955C1048.14 458.989 1048.01 459.023 1047.85 459.057C1047.69 459.095 1047.48 459.114 1047.23 459.114C1046.85 459.114 1046.48 459.032 1046.12 458.869C1045.76 458.706 1045.46 458.458 1045.22 458.125C1044.98 457.792 1044.87 457.371 1044.87 456.864V448.182ZM1052.65 459.205C1052.1 459.205 1051.6 459.1 1051.15 458.892C1050.7 458.68 1050.34 458.375 1050.08 457.977C1049.81 457.576 1049.68 457.091 1049.68 456.523C1049.68 456.023 1049.78 455.617 1049.97 455.307C1050.17 454.992 1050.43 454.746 1050.76 454.568C1051.09 454.39 1051.46 454.258 1051.85 454.17C1052.26 454.08 1052.66 454.008 1053.06 453.955C1053.59 453.886 1054.02 453.835 1054.35 453.801C1054.69 453.763 1054.93 453.701 1055.08 453.614C1055.24 453.527 1055.31 453.375 1055.31 453.159V453.114C1055.31 452.553 1055.16 452.117 1054.85 451.807C1054.55 451.496 1054.09 451.341 1053.47 451.341C1052.83 451.341 1052.33 451.481 1051.97 451.761C1051.6 452.042 1051.35 452.341 1051.2 452.659L1049.93 452.205C1050.15 451.674 1050.46 451.261 1050.84 450.966C1051.22 450.667 1051.64 450.458 1052.09 450.341C1052.54 450.22 1052.99 450.159 1053.43 450.159C1053.71 450.159 1054.03 450.193 1054.39 450.261C1054.76 450.326 1055.12 450.46 1055.46 450.665C1055.8 450.869 1056.09 451.178 1056.31 451.591C1056.54 452.004 1056.65 452.557 1056.65 453.25V459H1055.31V457.818H1055.25C1055.15 458.008 1055 458.21 1054.79 458.426C1054.58 458.642 1054.3 458.826 1053.94 458.977C1053.59 459.129 1053.16 459.205 1052.65 459.205ZM1052.86 458C1053.39 458 1053.84 457.896 1054.2 457.688C1054.57 457.479 1054.84 457.21 1055.03 456.881C1055.22 456.551 1055.31 456.205 1055.31 455.841V454.614C1055.26 454.682 1055.13 454.744 1054.94 454.801C1054.75 454.854 1054.53 454.902 1054.28 454.943C1054.03 454.981 1053.79 455.015 1053.56 455.045C1053.33 455.072 1053.14 455.095 1053 455.114C1052.65 455.159 1052.32 455.233 1052.02 455.335C1051.72 455.434 1051.48 455.583 1051.29 455.784C1051.11 455.981 1051.02 456.25 1051.02 456.591C1051.02 457.057 1051.19 457.409 1051.54 457.648C1051.88 457.883 1052.33 458 1052.86 458ZM1059.1 459V450.273H1060.44V459H1059.1ZM1059.78 448.818C1059.52 448.818 1059.3 448.729 1059.11 448.551C1058.92 448.373 1058.83 448.159 1058.83 447.909C1058.83 447.659 1058.92 447.445 1059.11 447.267C1059.3 447.089 1059.52 447 1059.78 447C1060.05 447 1060.27 447.089 1060.45 447.267C1060.64 447.445 1060.74 447.659 1060.74 447.909C1060.74 448.159 1060.64 448.373 1060.45 448.551C1060.27 448.729 1060.05 448.818 1059.78 448.818ZM1064.24 453.75V459H1062.9V450.273H1064.19V451.636H1064.31C1064.51 451.193 1064.82 450.837 1065.24 450.568C1065.66 450.295 1066.19 450.159 1066.85 450.159C1067.44 450.159 1067.96 450.28 1068.4 450.523C1068.85 450.761 1069.19 451.125 1069.44 451.614C1069.69 452.098 1069.81 452.712 1069.81 453.455V459H1068.47V453.545C1068.47 452.86 1068.29 452.326 1067.93 451.943C1067.58 451.557 1067.09 451.364 1066.47 451.364C1066.04 451.364 1065.66 451.456 1065.32 451.642C1064.99 451.828 1064.72 452.098 1064.53 452.455C1064.34 452.811 1064.24 453.242 1064.24 453.75ZM1075.92 459.182C1075.08 459.182 1074.35 458.996 1073.74 458.625C1073.14 458.25 1072.67 457.727 1072.34 457.057C1072.01 456.383 1071.85 455.598 1071.85 454.705C1071.85 453.811 1072.01 453.023 1072.34 452.341C1072.67 451.655 1073.13 451.121 1073.71 450.739C1074.3 450.352 1074.99 450.159 1075.78 450.159C1076.24 450.159 1076.68 450.235 1077.13 450.386C1077.57 450.538 1077.97 450.784 1078.34 451.125C1078.7 451.462 1078.99 451.909 1079.21 452.466C1079.42 453.023 1079.53 453.708 1079.53 454.523V455.091H1072.8V453.932H1078.17C1078.17 453.439 1078.07 453 1077.87 452.614C1077.68 452.227 1077.4 451.922 1077.04 451.699C1076.69 451.475 1076.27 451.364 1075.78 451.364C1075.25 451.364 1074.79 451.496 1074.39 451.761C1074.01 452.023 1073.71 452.364 1073.5 452.784C1073.29 453.205 1073.19 453.655 1073.19 454.136V454.909C1073.19 455.568 1073.3 456.127 1073.53 456.585C1073.76 457.04 1074.08 457.386 1074.49 457.625C1074.9 457.86 1075.38 457.977 1075.92 457.977C1076.27 457.977 1076.59 457.928 1076.87 457.83C1077.16 457.727 1077.41 457.576 1077.62 457.375C1077.82 457.17 1077.99 456.917 1078.1 456.614L1079.39 456.977C1079.26 457.417 1079.03 457.803 1078.71 458.136C1078.39 458.466 1077.99 458.723 1077.51 458.909C1077.04 459.091 1076.51 459.182 1075.92 459.182ZM1081.57 459V450.273H1082.87V451.591H1082.96C1083.12 451.159 1083.4 450.809 1083.82 450.54C1084.24 450.271 1084.71 450.136 1085.23 450.136C1085.33 450.136 1085.45 450.138 1085.6 450.142C1085.75 450.146 1085.86 450.152 1085.93 450.159V451.523C1085.89 451.511 1085.79 451.494 1085.62 451.472C1085.46 451.445 1085.29 451.432 1085.12 451.432C1084.69 451.432 1084.31 451.521 1083.98 451.699C1083.65 451.873 1083.39 452.116 1083.2 452.426C1083.01 452.733 1082.91 453.083 1082.91 453.477V459H1081.57Z" fill="black"/>
<path d="M572.534 422V411.091H574.153V412.795H574.295C574.523 412.213 574.89 411.761 575.396 411.439C575.903 411.112 576.511 410.949 577.222 410.949C577.941 410.949 578.54 411.112 579.018 411.439C579.501 411.761 579.878 412.213 580.148 412.795H580.261C580.541 412.232 580.96 411.785 581.518 411.453C582.077 411.117 582.747 410.949 583.528 410.949C584.504 410.949 585.302 411.254 585.922 411.865C586.542 412.471 586.852 413.416 586.852 414.699V422H585.176V414.699C585.176 413.894 584.956 413.319 584.516 412.973C584.075 412.627 583.557 412.455 582.96 412.455C582.193 412.455 581.599 412.687 581.178 413.151C580.756 413.61 580.545 414.192 580.545 414.898V422H578.841V414.528C578.841 413.908 578.64 413.409 578.237 413.03C577.835 412.646 577.316 412.455 576.682 412.455C576.246 412.455 575.839 412.571 575.46 412.803C575.086 413.035 574.783 413.357 574.551 413.768C574.324 414.176 574.21 414.647 574.21 415.182V422H572.534ZM593.127 422.256C592.436 422.256 591.808 422.125 591.245 421.865C590.682 421.6 590.234 421.219 589.903 420.722C589.571 420.22 589.406 419.614 589.406 418.903C589.406 418.278 589.529 417.772 589.775 417.384C590.021 416.991 590.35 416.683 590.762 416.46C591.174 416.238 591.629 416.072 592.126 415.963C592.628 415.849 593.132 415.759 593.638 415.693C594.301 415.608 594.839 415.544 595.251 415.501C595.667 415.454 595.97 415.376 596.16 415.267C596.354 415.158 596.451 414.969 596.451 414.699V414.642C596.451 413.941 596.259 413.397 595.876 413.009C595.497 412.62 594.922 412.426 594.15 412.426C593.35 412.426 592.722 412.601 592.268 412.952C591.813 413.302 591.494 413.676 591.309 414.074L589.718 413.506C590.002 412.843 590.381 412.327 590.854 411.957C591.333 411.583 591.853 411.323 592.417 411.176C592.985 411.025 593.544 410.949 594.093 410.949C594.443 410.949 594.846 410.991 595.3 411.077C595.76 411.157 596.202 411.325 596.629 411.581C597.059 411.837 597.417 412.223 597.701 412.739C597.985 413.255 598.127 413.946 598.127 414.812V422H596.451V420.523H596.366C596.252 420.759 596.063 421.013 595.798 421.283C595.532 421.553 595.18 421.782 594.739 421.972C594.299 422.161 593.762 422.256 593.127 422.256ZM593.383 420.75C594.046 420.75 594.604 420.62 595.059 420.359C595.518 420.099 595.864 419.763 596.096 419.351C596.333 418.939 596.451 418.506 596.451 418.051V416.517C596.38 416.602 596.224 416.68 595.982 416.751C595.746 416.818 595.471 416.877 595.158 416.929C594.851 416.976 594.55 417.019 594.256 417.057C593.968 417.09 593.733 417.118 593.553 417.142C593.118 417.199 592.71 417.291 592.332 417.419C591.958 417.542 591.655 417.729 591.423 417.98C591.195 418.226 591.082 418.562 591.082 418.989C591.082 419.571 591.297 420.011 591.728 420.31C592.164 420.603 592.715 420.75 593.383 420.75ZM601.186 426.091V411.091H602.806V412.824H603.005C603.128 412.634 603.298 412.393 603.516 412.099C603.739 411.801 604.056 411.536 604.468 411.304C604.884 411.067 605.448 410.949 606.158 410.949C607.077 410.949 607.886 411.179 608.587 411.638C609.288 412.097 609.835 412.748 610.228 413.591C610.621 414.434 610.817 415.428 610.817 416.574C610.817 417.729 610.621 418.731 610.228 419.578C609.835 420.421 609.29 421.074 608.594 421.538C607.898 421.998 607.096 422.227 606.186 422.227C605.486 422.227 604.925 422.111 604.503 421.879C604.082 421.643 603.757 421.375 603.53 421.077C603.303 420.774 603.128 420.523 603.005 420.324H602.863V426.091H601.186ZM602.834 416.545C602.834 417.369 602.955 418.096 603.196 418.726C603.438 419.351 603.791 419.841 604.255 420.196C604.719 420.546 605.287 420.722 605.959 420.722C606.66 420.722 607.245 420.537 607.713 420.168C608.187 419.794 608.542 419.292 608.779 418.662C609.02 418.027 609.141 417.322 609.141 416.545C609.141 415.778 609.023 415.087 608.786 414.472C608.554 413.851 608.201 413.361 607.728 413.001C607.259 412.637 606.669 412.455 605.959 412.455C605.277 412.455 604.704 412.627 604.24 412.973C603.776 413.314 603.426 413.792 603.189 414.408C602.953 415.018 602.834 415.731 602.834 416.545ZM619.624 414.983V416.545H613.26V414.983H619.624ZM627.005 422.227C625.982 422.227 625.102 421.986 624.363 421.503C623.624 421.02 623.056 420.355 622.658 419.507C622.261 418.66 622.062 417.691 622.062 416.602C622.062 415.494 622.265 414.517 622.673 413.669C623.085 412.817 623.657 412.152 624.391 411.673C625.13 411.19 625.992 410.949 626.977 410.949C627.744 410.949 628.435 411.091 629.05 411.375C629.666 411.659 630.17 412.057 630.563 412.568C630.956 413.08 631.2 413.676 631.295 414.358H629.619C629.491 413.861 629.207 413.42 628.766 413.037C628.331 412.649 627.744 412.455 627.005 412.455C626.352 412.455 625.779 412.625 625.286 412.966C624.799 413.302 624.417 413.778 624.143 414.393C623.873 415.004 623.738 415.722 623.738 416.545C623.738 417.388 623.871 418.122 624.136 418.747C624.406 419.372 624.784 419.857 625.272 420.203C625.764 420.549 626.342 420.722 627.005 420.722C627.441 420.722 627.836 420.646 628.191 420.494C628.546 420.343 628.847 420.125 629.093 419.841C629.339 419.557 629.514 419.216 629.619 418.818H631.295C631.2 419.462 630.966 420.042 630.592 420.558C630.222 421.07 629.732 421.477 629.121 421.78C628.515 422.078 627.81 422.227 627.005 422.227ZM638.177 422.227C637.192 422.227 636.328 421.993 635.585 421.524C634.846 421.055 634.268 420.4 633.852 419.557C633.44 418.714 633.234 417.729 633.234 416.602C633.234 415.466 633.44 414.474 633.852 413.626C634.268 412.779 634.846 412.121 635.585 411.652C636.328 411.183 637.192 410.949 638.177 410.949C639.162 410.949 640.023 411.183 640.762 411.652C641.505 412.121 642.083 412.779 642.495 413.626C642.912 414.474 643.12 415.466 643.12 416.602C643.12 417.729 642.912 418.714 642.495 419.557C642.083 420.4 641.505 421.055 640.762 421.524C640.023 421.993 639.162 422.227 638.177 422.227ZM638.177 420.722C638.925 420.722 639.54 420.53 640.023 420.146C640.506 419.763 640.864 419.259 641.096 418.634C641.328 418.009 641.444 417.331 641.444 416.602C641.444 415.873 641.328 415.194 641.096 414.564C640.864 413.934 640.506 413.425 640.023 413.037C639.54 412.649 638.925 412.455 638.177 412.455C637.429 412.455 636.813 412.649 636.33 413.037C635.847 413.425 635.49 413.934 635.258 414.564C635.026 415.194 634.91 415.873 634.91 416.602C634.91 417.331 635.026 418.009 635.258 418.634C635.49 419.259 635.847 419.763 636.33 420.146C636.813 420.53 637.429 420.722 638.177 420.722ZM647.355 415.438V422H645.679V411.091H647.298V412.795H647.44C647.696 412.241 648.084 411.796 648.605 411.46C649.126 411.119 649.798 410.949 650.622 410.949C651.36 410.949 652.007 411.1 652.561 411.403C653.115 411.702 653.546 412.156 653.853 412.767C654.161 413.373 654.315 414.14 654.315 415.068V422H652.639V415.182C652.639 414.325 652.416 413.657 651.971 413.179C651.526 412.696 650.915 412.455 650.139 412.455C649.604 412.455 649.126 412.571 648.704 412.803C648.288 413.035 647.958 413.373 647.717 413.818C647.475 414.263 647.355 414.803 647.355 415.438ZM662.122 411.091V412.511H656.469V411.091H662.122ZM658.116 408.477H659.793V418.875C659.793 419.348 659.861 419.704 659.999 419.94C660.141 420.172 660.321 420.329 660.538 420.409C660.761 420.485 660.995 420.523 661.241 420.523C661.426 420.523 661.578 420.513 661.696 420.494C661.814 420.471 661.909 420.452 661.98 420.438L662.321 421.943C662.207 421.986 662.049 422.028 661.845 422.071C661.642 422.118 661.384 422.142 661.071 422.142C660.598 422.142 660.134 422.04 659.679 421.837C659.229 421.633 658.855 421.323 658.557 420.906C658.263 420.49 658.116 419.964 658.116 419.33V408.477ZM667.854 422.256C667.162 422.256 666.535 422.125 665.972 421.865C665.408 421.6 664.961 421.219 664.629 420.722C664.298 420.22 664.132 419.614 664.132 418.903C664.132 418.278 664.255 417.772 664.501 417.384C664.748 416.991 665.077 416.683 665.489 416.46C665.901 416.238 666.355 416.072 666.852 415.963C667.354 415.849 667.858 415.759 668.365 415.693C669.028 415.608 669.565 415.544 669.977 415.501C670.394 415.454 670.697 415.376 670.886 415.267C671.08 415.158 671.178 414.969 671.178 414.699V414.642C671.178 413.941 670.986 413.397 670.602 413.009C670.223 412.62 669.648 412.426 668.876 412.426C668.076 412.426 667.449 412.601 666.994 412.952C666.54 413.302 666.22 413.676 666.036 414.074L664.445 413.506C664.729 412.843 665.107 412.327 665.581 411.957C666.059 411.583 666.58 411.323 667.143 411.176C667.712 411.025 668.27 410.949 668.82 410.949C669.17 410.949 669.572 410.991 670.027 411.077C670.486 411.157 670.929 411.325 671.355 411.581C671.786 411.837 672.143 412.223 672.428 412.739C672.712 413.255 672.854 413.946 672.854 414.812V422H671.178V420.523H671.092C670.979 420.759 670.789 421.013 670.524 421.283C670.259 421.553 669.906 421.782 669.466 421.972C669.026 422.161 668.488 422.256 667.854 422.256ZM668.109 420.75C668.772 420.75 669.331 420.62 669.786 420.359C670.245 420.099 670.59 419.763 670.822 419.351C671.059 418.939 671.178 418.506 671.178 418.051V416.517C671.107 416.602 670.95 416.68 670.709 416.751C670.472 416.818 670.197 416.877 669.885 416.929C669.577 416.976 669.277 417.019 668.983 417.057C668.694 417.09 668.46 417.118 668.28 417.142C667.844 417.199 667.437 417.291 667.058 417.419C666.684 417.542 666.381 417.729 666.149 417.98C665.922 418.226 665.808 418.562 665.808 418.989C665.808 419.571 666.024 420.011 666.455 420.31C666.89 420.603 667.442 420.75 668.109 420.75ZM675.913 422V411.091H677.589V422H675.913ZM676.765 409.273C676.439 409.273 676.157 409.161 675.92 408.939C675.688 408.716 675.572 408.449 675.572 408.136C675.572 407.824 675.688 407.556 675.92 407.334C676.157 407.111 676.439 407 676.765 407C677.092 407 677.371 407.111 677.603 407.334C677.84 407.556 677.958 407.824 677.958 408.136C677.958 408.449 677.84 408.716 677.603 408.939C677.371 409.161 677.092 409.273 676.765 409.273ZM682.335 415.438V422H680.659V411.091H682.278V412.795H682.42C682.676 412.241 683.064 411.796 683.585 411.46C684.106 411.119 684.778 410.949 685.602 410.949C686.341 410.949 686.987 411.1 687.541 411.403C688.095 411.702 688.526 412.156 688.834 412.767C689.142 413.373 689.295 414.14 689.295 415.068V422H687.619V415.182C687.619 414.325 687.397 413.657 686.952 413.179C686.507 412.696 685.896 412.455 685.119 412.455C684.584 412.455 684.106 412.571 683.685 412.803C683.268 413.035 682.939 413.373 682.697 413.818C682.456 414.263 682.335 414.803 682.335 415.438ZM696.932 422.227C695.881 422.227 694.974 421.995 694.212 421.531C693.454 421.062 692.87 420.409 692.458 419.571C692.051 418.728 691.847 417.748 691.847 416.631C691.847 415.513 692.051 414.528 692.458 413.676C692.87 412.819 693.443 412.152 694.176 411.673C694.915 411.19 695.777 410.949 696.762 410.949C697.33 410.949 697.891 411.044 698.445 411.233C698.999 411.422 699.503 411.73 699.958 412.156C700.412 412.578 700.775 413.136 701.044 413.832C701.314 414.528 701.449 415.385 701.449 416.403V417.114H693.04V415.665H699.745C699.745 415.049 699.622 414.5 699.375 414.017C699.134 413.534 698.788 413.153 698.338 412.874C697.893 412.594 697.368 412.455 696.762 412.455C696.094 412.455 695.516 412.62 695.029 412.952C694.546 413.278 694.174 413.705 693.914 414.23C693.653 414.756 693.523 415.319 693.523 415.92V416.886C693.523 417.71 693.665 418.409 693.949 418.982C694.238 419.55 694.638 419.983 695.15 420.281C695.661 420.575 696.255 420.722 696.932 420.722C697.373 420.722 697.77 420.66 698.125 420.537C698.485 420.409 698.795 420.22 699.056 419.969C699.316 419.713 699.517 419.396 699.659 419.017L701.279 419.472C701.108 420.021 700.822 420.504 700.419 420.92C700.017 421.332 699.52 421.654 698.928 421.886C698.336 422.114 697.671 422.227 696.932 422.227ZM703.999 422V411.091H705.618V412.739H705.732C705.931 412.199 706.291 411.761 706.811 411.425C707.332 411.089 707.919 410.92 708.573 410.92C708.696 410.92 708.85 410.923 709.034 410.928C709.219 410.932 709.359 410.939 709.453 410.949V412.653C709.397 412.639 709.266 412.618 709.063 412.589C708.864 412.556 708.653 412.54 708.431 412.54C707.9 412.54 707.427 412.651 707.01 412.874C706.598 413.091 706.272 413.394 706.03 413.783C705.793 414.166 705.675 414.604 705.675 415.097V422H703.999Z" fill="black"/>
</svg>
